<svg xmlns="http://www.w3.org/2000/svg" viewBox="0 0 256 256" role="img" aria-label="Gharib Market">
  <rect width="256" height="256" rx="46" fill="#ffffff"/>
  <path d="M63 99h130l-17 83a25 25 0 0 1-25 20H105a25 25 0 0 1-25-20L63 99Z" fill="#d71920"/>
  <path d="M76 99h104l-13 69a18 18 0 0 1-18 15h-42a18 18 0 0 1-18-15L76 99Z" fill="#ef2b2d"/>
  <path d="M84 99 111 56a20 20 0 0 1 34 0l27 43" fill="none" stroke="#9f1118" stroke-width="18" stroke-linecap="round"/>
  <path d="M52 91h152c9 0 16 7 16 16s-7 16-16 16H52c-9 0-16-7-16-16s7-16 16-16Z" fill="#b80f18"/>
  <path d="M94 137v39M128 137v39M162 137v39" stroke="#ffffff" stroke-width="13" stroke-linecap="round" opacity=".92"/>
  <path d="M70 96h116" stroke="#ff7a7d" stroke-width="8" stroke-linecap="round" opacity=".75"/>
</svg>
